<svg width="40" height="24" viewBox="0 0 40 24" fill="none" xmlns="http://www.w3.org/2000/svg">
  <rect width="40" height="24" rx="4" fill="#EB001B"/>
  <circle cx="15" cy="12" r="7" fill="#EB001B"/>
  <circle cx="25" cy="12" r="7" fill="#FF5F00"/>
  <circle cx="20" cy="12" r="7" fill="#F79E1B"/>
  <path d="M15 5C18.866 5 22 8.134 22 12C22 15.866 18.866 19 15 19C11.134 19 8 15.866 8 12C8 8.134 11.134 5 15 5Z" fill="#EB001B"/>
  <path d="M25 5C28.866 5 32 8.134 32 12C32 15.866 28.866 19 25 19C21.134 19 18 15.866 18 12C18 8.134 21.134 5 25 5Z" fill="#F79E1B"/>
  <path d="M20 7.5C21.933 8.933 23 11.3 23 12C23 12.7 21.933 15.067 20 16.5C18.067 15.067 17 12.7 17 12C17 11.3 18.067 8.933 20 7.5Z" fill="#FF5F00"/>
</svg>