<svg width="40" height="24" viewBox="0 0 40 24" fill="none" xmlns="http://www.w3.org/2000/svg">
  <rect width="40" height="24" rx="4" fill="#003087"/>
  <path d="M8 6H14.5C17.5 6 19.5 7.5 19.5 10.5C19.5 13.5 17.5 15 14.5 15H11L10 18H8L8 6Z" fill="#009CDE"/>
  <path d="M11 9H14C15.5 9 16.5 9.8 16.5 11.2C16.5 12.6 15.5 13.5 14 13.5H12L11.5 15.5H10L11 9Z" fill="#012169"/>
  <path d="M20 6H26.5C29.5 6 31.5 7.5 31.5 10.5C31.5 13.5 29.5 15 26.5 15H23L22 18H20L20 6Z" fill="#009CDE"/>
  <path d="M23 9H26C27.5 9 28.5 9.8 28.5 11.2C28.5 12.6 27.5 13.5 26 13.5H24L23.5 15.5H22L23 9Z" fill="#012169"/>
</svg>