<svg width="40" height="24" viewBox="0 0 40 24" fill="none" xmlns="http://www.w3.org/2000/svg">
  <rect width="40" height="24" rx="4" fill="#1A1F71"/>
  <path d="M16.5 7.5L14.2 16.5H11.8L10.3 9.8C10.2 9.4 10 9.1 9.7 8.9C9.1 8.5 8.3 8.1 7.5 7.9L7.8 7.5H12.1C12.6 7.5 13 7.8 13.1 8.3L14 13.2L16.5 7.5ZM22.5 16.5H20.2L22.2 7.5H24.5L22.5 16.5ZM28.8 10.2C28.8 9.7 29.2 9.4 29.7 9.4C30.4 9.3 31.2 9.5 31.8 9.9L32.2 8.1C31.6 7.8 30.9 7.6 30.2 7.6C28.1 7.6 26.6 8.7 26.6 10.3C26.6 11.5 27.7 12.2 28.5 12.6C29.3 13 29.6 13.3 29.6 13.7C29.6 14.3 28.9 14.6 28.2 14.6C27.4 14.6 26.6 14.3 25.9 13.9L25.5 15.7C26.3 16.1 27.2 16.3 28.1 16.3C30.4 16.3 31.9 15.2 31.9 13.5C31.9 11.8 28.8 11.7 28.8 10.2ZM37.5 16.5H35.5C35.1 16.5 34.8 16.3 34.6 16L31.2 7.5H33.6L34.8 10.8L37.2 7.5H39.5L37.5 16.5Z" fill="white"/>
</svg>